HIERARCHY
ROOT Hips
{
	OFFSET 0.000000 0.000000 0.000000
	CHANNELS 6 Xposition Yposition Zposition Zrotation Yrotation Xrotation 
	JOINT LHipJoint
	{
		OFFSET 0.000000 0.000000 0.000000
		CHANNELS 3 Zrotation Yrotation Xrotation
		JOINT LeftUpLeg
		{
			OFFSET 1.363060 -1.794630 0.839290
			CHANNELS 3 Zrotation Yrotation Xrotation
			JOINT LeftLeg
			{
				OFFSET 2.448110 -6.726130 0.000000
				CHANNELS 3 Zrotation Yrotation Xrotation
				JOINT LeftFoot
				{
					OFFSET 2.562200 -7.039590 0.000000
					CHANNELS 3 Zrotation Yrotation Xrotation
					JOINT LeftToeBase
					{
						OFFSET 0.157640 -0.433110 2.322550
						CHANNELS 3 Zrotation Yrotation Xrotation
						End Site
						{
							OFFSET 0.000000 0.000000 0.000000
						}
					}
				}
			}
		}
	}
	JOINT RHipJoint
	{
		OFFSET 0.000000 0.000000 0.000000
		CHANNELS 3 Zrotation Yrotation Xrotation
		JOINT RightUpLeg
		{
			OFFSET -1.305520 -1.794630 0.839290
			CHANNELS 3 Zrotation Yrotation Xrotation
			JOINT RightLeg
			{
				OFFSET -2.542530 -6.985550 0.000000
				CHANNELS 3 Zrotation Yrotation Xrotation
				JOINT RightFoot
				{
					OFFSET -2.568260 -7.056230 0.000000
					CHANNELS 3 Zrotation Yrotation Xrotation
					JOINT RightToeBase
					{
						OFFSET -0.164730 -0.452590 2.363150
						CHANNELS 3 Zrotation Yrotation Xrotation
						End Site
						{
							OFFSET 0.000000 0.000000 0.000000
						}
					}
				}
			}
		}
	}
	JOINT LowerBack
	{
		OFFSET 0.000000 0.000000 0.000000
		CHANNELS 3 Zrotation Yrotation Xrotation
		JOINT Spine
		{
			OFFSET 0.028270 2.035590 -0.193380
			CHANNELS 3 Zrotation Yrotation Xrotation
			JOINT Spine1
			{
				OFFSET 0.056720 2.048850 -0.042750
				CHANNELS 3 Zrotation Yrotation Xrotation
				JOINT Neck
				{
					OFFSET 0.000000 0.000000 0.000000
					CHANNELS 3 Zrotation Yrotation Xrotation
					JOINT Neck1
					{
						OFFSET -0.054170 1.746240 0.172020
						CHANNELS 3 Zrotation Yrotation Xrotation
						JOINT Head
						{
							OFFSET 0.104070 1.761360 -0.123970
							CHANNELS 3 Zrotation Yrotation Xrotation
							End Site
							{
								OFFSET 0.000000 0.000000 0.000000
							}
						}
					}
				}
				JOINT LeftShoulder
				{
					OFFSET 0.000000 0.000000 0.000000
					CHANNELS 3 Zrotation Yrotation Xrotation
					JOINT LeftArm
					{
						OFFSET 3.362410 1.200890 -0.311210
						CHANNELS 3 Zrotation Yrotation Xrotation
						JOINT LeftForeArm
						{
							OFFSET 4.983000 -0.000000 -0.000000
							CHANNELS 3 Zrotation Yrotation Xrotation
							JOINT LeftHand
							{
								OFFSET 3.483560 -0.000000 -0.000000
								CHANNELS 3 Zrotation Yrotation Xrotation
								JOINT LeftFingerBase
								{
									OFFSET 0.000000 0.000000 0.000000
									CHANNELS 3 Zrotation Yrotation Xrotation
									JOINT LeftHandIndex1
									{
										OFFSET 0.715260 -0.000000 -0.000000
										CHANNELS 3 Zrotation Yrotation Xrotation
										End Site
										{
											OFFSET 0.000000 0.000000 0.000000
										}
									}
								}
								JOINT LThumb
								{
									OFFSET 0.000000 0.000000 0.000000
									CHANNELS 3 Zrotation Yrotation Xrotation
									End Site
									{
										OFFSET 0.000000 0.000000 0.000000
									}
								}
							}
						}
					}
				}
				JOINT RightShoulder
				{
					OFFSET 0.000000 0.000000 0.000000
					CHANNELS 3 Zrotation Yrotation Xrotation
					JOINT RightArm
					{
						OFFSET -3.136600 1.374050 -0.404650
						CHANNELS 3 Zrotation Yrotation Xrotation
						JOINT RightForeArm
						{
							OFFSET -5.241900 -0.000000 -0.000000
							CHANNELS 3 Zrotation Yrotation Xrotation
							JOINT RightHand
							{
								OFFSET -3.444170 -0.000000 -0.000000
								CHANNELS 3 Zrotation Yrotation Xrotation
								JOINT RightFingerBase
								{
									OFFSET 0.000000 0.000000 0.000000
									CHANNELS 3 Zrotation Yrotation Xrotation
									JOINT RightHandIndex1
									{
										OFFSET -0.622530 -0.000000 -0.000000
										CHANNELS 3 Zrotation Yrotation Xrotation
										End Site
										{
											OFFSET 0.000000 0.000000 0.000000
										}
									}
								}
								JOINT RThumb
								{
									OFFSET 0.000000 0.000000 0.000000
									CHANNELS 3 Zrotation Yrotation Xrotation
									End Site
									{
										OFFSET 0.000000 0.000000 0.000000
									}
								}
							}
						}
					}
				}
			}
		}
	}
}
MOTION
Frames: 6
Frame Time: 0.008333
14.297095 15.241910 4.058169 -175.964624 -32.864320 178.832531 -0.516270 -5.114027 -6.175738 13.548996 1.329585 -48.214286 14.199146 20.120555 67.300694 6.959939 -17.312987 34.719359 0.749700 -5.530400 -15.427700 1.585530 3.758912 -1.759784 -8.994081 0.606171 -42.441141 -22.165093 -20.178262 85.052666 4.758652 -14.729519 13.351920 -0.114900 -2.185300 6.018100 3.772664 2.492134 52.694016 0.168855 1.219607 -1.826831 -9.722312 -0.203553 -7.856315 -7.173000 23.143998 1.491396 -5.674291 32.543470 7.600077 -5.149600 15.825600 5.731200 -0.725995 -11.777624 3.145853 -64.223045 -31.272354 -4.885777 48.532982 -38.596168 -38.546611 -2.400168 -7.147271 -11.658142 29.813243 19.360858 16.259700 -7.125000 0.000000 0.000000 4.903700 60.058600 1.804300 3.594743 12.898634 3.515890 24.891095 23.215567 18.046506 -16.701841 25.595418 -10.802963 -2.622296 -2.828721 -4.162433 0.462924 24.950199 1.482900 7.125000 0.000000 0.000000 19.631900 -3.682200 19.535100 
14.213584 15.186657 4.041282 -176.863191 -33.322547 179.281211 -0.664230 -5.178721 -6.009120 12.474554 1.490695 -48.322357 14.160789 20.099828 67.611340 7.252972 -18.266209 33.177781 0.842000 -5.853100 -16.358900 1.343864 3.750941 -2.001274 -9.891155 0.300226 -42.930871 -22.096668 -20.208903 85.082672 4.344981 -13.525143 12.237875 -0.141300 -2.422200 6.673900 2.752667 2.459605 52.647672 0.164017 0.612757 -1.850120 -9.423195 -0.441875 -8.131020 -7.076211 23.328006 1.950022 -6.060590 32.875613 7.222691 -5.501800 15.996600 5.616800 -0.637784 -11.917763 3.251794 -64.600218 -32.221920 -5.147736 48.394431 -38.251411 -38.206956 -2.484110 -7.021976 -9.885279 29.300270 19.719649 16.064300 -7.125000 0.000000 0.000000 4.013900 60.270000 1.496500 3.441687 13.147698 3.563696 24.798616 23.857393 18.398904 -16.933539 25.631176 -10.830925 -2.606953 -2.858972 -4.857634 0.459387 25.060228 1.494900 7.125000 0.000000 0.000000 19.635900 -3.580900 19.578500 
14.145006 15.141398 4.023707 -177.629283 -33.733496 179.650392 -0.826430 -5.228935 -5.814779 11.360816 1.851532 -48.249279 14.089017 20.029045 67.677232 7.632872 -19.124085 31.275701 0.711000 -5.388900 -15.021300 1.203952 3.772271 -2.205177 -10.491775 0.128172 -43.380144 -21.956145 -20.235910 84.840348 4.158824 -12.849057 10.846832 -0.072900 -1.741700 4.792400 1.789168 2.510683 52.777220 0.136500 0.148962 -1.890104 -9.035474 -0.628344 -8.497714 -7.362844 23.598258 2.416251 -6.293439 33.202760 6.822641 -5.694500 16.180200 5.239200 -0.686896 -12.041570 3.309532 -63.884422 -32.499784 -5.386292 47.930653 -37.854097 -37.641146 -2.566147 -6.920660 -9.384466 29.039321 19.477213 15.735300 -7.125000 0.000000 0.000000 3.774100 59.839300 1.368100 3.284065 13.293728 3.572629 24.926539 24.302551 18.726531 -17.384598 25.843992 -11.005522 -2.525639 -2.737879 -5.210946 0.103132 24.635520 1.272800 7.125000 0.000000 0.000000 19.416300 -4.078100 19.141500 
14.091705 15.089247 4.018308 -178.088578 -34.095578 -179.989366 -0.905059 -5.267439 -5.672668 10.417856 2.418949 -48.404118 14.045738 19.929877 67.702752 8.006205 -19.972450 29.609667 0.334000 -3.713900 -10.273100 1.116351 3.846084 -2.407525 -10.763300 0.174934 -44.127893 -21.766357 -20.262813 84.500218 4.023990 -12.327621 9.504768 -0.076200 -1.780900 4.900500 1.008299 2.542956 52.779645 0.097660 -0.215002 -1.928421 -8.655738 -0.783136 -8.861138 -7.681429 23.845926 2.983203 -6.550262 33.495554 6.342519 -5.920500 16.358100 4.702500 -0.829245 -12.123523 3.341877 -61.983209 -31.998029 -5.768994 47.229877 -37.517404 -37.067454 -2.472912 -6.937052 -9.931954 28.129674 19.208382 15.052800 -7.125000 0.000000 0.000000 2.709300 59.295000 0.946500 3.134045 13.364305 3.548024 25.238445 24.763678 18.807776 -17.938537 26.167371 -11.324604 -2.596898 -2.536846 -4.950994 0.293581 24.107446 1.347400 7.125000 0.000000 0.000000 19.581000 -4.775800 19.055400 
14.027722 15.004931 4.013943 -178.472121 -34.456777 -179.686827 -0.952353 -5.297267 -5.555241 9.475984 3.013735 -48.687087 14.150216 19.860311 68.024711 8.436011 -20.872524 27.479633 0.087500 -1.907400 -5.249700 0.996661 3.906257 -2.638767 -11.055045 0.134139 -44.904186 -21.567960 -20.292503 84.062838 3.850020 -11.791111 8.413541 -0.103100 -2.070200 5.699700 0.526464 2.470399 52.706239 0.066135 -0.603497 -1.922476 -8.556774 -0.954601 -9.035293 -7.627678 23.960003 3.611639 -7.044209 33.774117 5.817901 -6.370900 16.512400 4.341500 -0.874513 -12.213787 3.434403 -60.448721 -32.117347 -6.046526 46.529372 -37.069880 -36.367741 -2.411741 -6.930069 -10.291183 27.270734 19.024904 14.451700 -7.125000 0.000000 0.000000 1.714900 58.844600 0.580400 3.011397 13.499077 3.553734 25.255469 25.307685 18.585729 -18.361609 26.426920 -11.627615 -2.761816 -2.391295 -4.768421 0.986018 23.852974 1.696400 7.125000 0.000000 0.000000 20.078400 -5.206500 19.434700 
13.965577 14.907980 3.999814 -179.561092 -34.652458 -178.731615 -1.084359 -5.369431 -5.394574 8.001154 3.587647 -49.216567 14.450350 19.810718 68.574277 8.818446 -20.617972 24.105438 0.223000 -3.039800 -8.389700 0.779336 3.950025 -2.964044 -11.869631 0.017737 -45.750815 -21.323256 -20.331527 83.293013 3.427925 -10.810041 8.018792 -0.168900 -2.647800 7.299600 -0.643560 2.664541 52.368295 0.015023 -0.987393 -1.928911 -8.255714 -1.085400 -9.208639 -7.726390 24.128692 4.183835 -7.417719 34.042147 5.348356 -6.741900 16.659300 3.965400 -0.933428 -12.322181 3.516492 -58.924925 -32.345477 -6.329240 45.756950 -36.532146 -35.538778 -2.505824 -6.872671 -10.715879 27.194265 18.556660 14.172400 -7.125000 0.000000 0.000000 1.920000 58.209000 0.620600 2.882958 13.647676 3.561001 25.178471 25.805542 18.540210 -18.707543 26.611721 -11.826510 -2.728002 -2.414334 -4.932464 0.758102 24.063852 1.597700 7.125000 0.000000 0.000000 19.922200 -4.976200 19.354100 
